<svg width="19" height="19" viewBox="0 0 19 19" fill="none" xmlns="http://www.w3.org/2000/svg">
<path d="M3.00732 9.16504V12.5325C3.00732 15.9 4.35732 17.25 7.72482 17.25H11.7673C15.1348 17.25 16.4848 15.9 16.4848 12.5325V9.16504" stroke="black" stroke-width="1.125" stroke-linecap="round" stroke-linejoin="round"/>
<path d="M9.74987 9.75C11.1224 9.75 12.1349 8.6325 11.9999 7.26L11.5049 2.25H8.00237L7.49987 7.26C7.36487 8.6325 8.37737 9.75 9.74987 9.75Z" stroke="black" stroke-width="1.125" stroke-linecap="round" stroke-linejoin="round"/>
<path d="M14.4821 9.75C15.9971 9.75 17.1071 8.52 16.9571 7.0125L16.7471 4.95C16.4771 3 15.7271 2.25 13.7621 2.25H11.4746L11.9996 7.5075C12.1271 8.745 13.2446 9.75 14.4821 9.75Z" stroke="black" stroke-width="1.125" stroke-linecap="round" stroke-linejoin="round"/>
<path d="M4.97979 9.75C6.21729 9.75 7.33479 8.745 7.45479 7.5075L7.61979 5.85L7.97979 2.25H5.69229C3.72729 2.25 2.97729 3 2.70729 4.95L2.50479 7.0125C2.35479 8.52 3.46479 9.75 4.97979 9.75Z" stroke="black" stroke-width="1.125" stroke-linecap="round" stroke-linejoin="round"/>
<path d="M9.75 13.5C8.4975 13.5 7.875 14.1225 7.875 15.375V17.25H11.625V15.375C11.625 14.1225 11.0025 13.5 9.75 13.5Z" stroke="black" stroke-width="1.125" stroke-linecap="round" stroke-linejoin="round"/>
</svg>
